<svg width="30" height="30" viewBox="0 0 30 30" fill="none" xmlns="http://www.w3.org/2000/svg">
<rect width="30" height="30" rx="5" fill="white" fill-opacity="0.15"/>
<path d="M11.6665 15.4682L17.0066 20.8083C17.1301 20.9319 17.295 21 17.4708 21C17.6466 21 17.8115 20.9319 17.935 20.8083L18.3283 20.4151C18.5842 20.1589 18.5842 19.7425 18.3283 19.4867L13.844 15.0025L18.3333 10.5133C18.4568 10.3896 18.525 10.2249 18.525 10.0492C18.525 9.87326 18.4568 9.70848 18.3333 9.58477L17.94 9.19171C17.8164 9.0681 17.6516 9 17.4758 9C17.3 9 17.1351 9.0681 17.0116 9.19171L11.6665 14.5366C11.5427 14.6606 11.4747 14.8262 11.4751 15.0022C11.4747 15.1789 11.5427 15.3443 11.6665 15.4682Z" fill="white"/>
</svg>
