<svg width="26" height="23" viewBox="0 0 26 23" fill="none" xmlns="http://www.w3.org/2000/svg">
<path d="M24.687 3.1458H6.63699L6.25101 1.171C6.15401 0.672301 5.71599 0.3125 5.20799 0.3125H0.781006C0.488006 0.3125 0.25 0.5504 0.25 0.8438V1.9063C0.25 2.1996 0.488006 2.4375 0.781006 2.4375H4.334L7.41499 18.1847C6.92599 18.6938 6.625 19.3845 6.625 20.1458C6.625 21.7106 7.89399 22.9792 9.45799 22.9792C11.023 22.9792 12.292 21.7106 12.292 20.1458C12.292 19.6484 12.161 19.1596 11.912 18.7292H18.338C18.089 19.1596 17.958 19.6484 17.958 20.1458C17.958 21.7106 19.227 22.9792 20.792 22.9792C22.357 22.9792 23.625 21.7106 23.625 20.1458C23.625 19.3429 23.291 18.6187 22.754 18.1031L22.8 17.8925C22.944 17.2302 22.439 16.6042 21.762 16.6042H9.271L8.855 14.4792H22.685C23.185 14.4792 23.617 14.1308 23.724 13.6424L25.725 4.434C25.869 3.7718 25.365 3.1458 24.687 3.1458ZM9.45799 21.2083C8.87199 21.2083 8.396 20.7317 8.396 20.1458C8.396 19.56 8.87199 19.0833 9.45799 19.0833C10.044 19.0833 10.521 19.56 10.521 20.1458C10.521 20.7317 10.044 21.2083 9.45799 21.2083ZM20.792 21.2083C20.206 21.2083 19.729 20.7317 19.729 20.1458C19.729 19.56 20.206 19.0833 20.792 19.0833C21.378 19.0833 21.854 19.56 21.854 20.1458C21.854 20.7317 21.378 21.2083 20.792 21.2083ZM21.829 12.3542H8.439L7.05299 5.2708H23.369L21.829 12.3542Z" fill="white"/>
</svg>
