<svg width="17" height="17" viewBox="0 0 17 17" fill="none" xmlns="http://www.w3.org/2000/svg">
<g clip-path="url(#clip0_379_12088)">
<path d="M12.6184 12.3962C11.5908 12.3952 10.7569 13.2274 10.7559 14.255C10.7549 15.2826 11.5872 16.1164 12.6148 16.1175C13.6424 16.1184 14.4762 15.2862 14.4772 14.2586C14.4772 14.258 14.4772 14.2574 14.4772 14.2568C14.4762 13.2303 13.6448 12.3982 12.6184 12.3962Z" fill="white"/>
<path d="M15.9185 3.48649C15.874 3.47786 15.8288 3.47348 15.7834 3.47341H4.45454L4.27511 2.27305C4.16332 1.47587 3.48144 0.882753 2.67644 0.882507H1.2177C0.821318 0.882507 0.5 1.20383 0.5 1.60021C0.5 1.99659 0.821318 2.31791 1.2177 2.31791H2.67823C2.76948 2.31724 2.84672 2.38519 2.85765 2.47582L3.96291 10.0511C4.11444 11.0137 4.94242 11.7239 5.91685 11.727H13.3827C14.3209 11.7282 15.1302 11.0688 15.3187 10.1498L16.4868 4.32747C16.5621 3.93831 16.3077 3.5618 15.9185 3.48649Z" fill="white"/>
<path d="M8.06028 14.1772C8.01658 13.1797 7.19339 12.3946 6.19495 12.398C5.1682 12.4395 4.36948 13.3055 4.41097 14.3323C4.45078 15.3175 5.2522 16.1005 6.23802 16.1175H6.28288C7.30949 16.0725 8.10524 15.2038 8.06028 14.1772Z" fill="white"/>
</g>
<defs>
<clipPath id="clip0_379_12088">
<rect width="16" height="16" fill="white" transform="translate(0.5 0.5)"/>
</clipPath>
</defs>
</svg>
