<svg width="24" height="24" viewBox="0 0 24 24" fill="none" xmlns="http://www.w3.org/2000/svg">
<g clip-path="url(#clip0_254_361)">
<path d="M18.1776 17.8444C16.6362 17.8429 15.3854 19.0912 15.3839 20.6326C15.3824 22.174 16.6308 23.4248 18.1722 23.4263C19.7136 23.4278 20.9643 22.1794 20.9658 20.638C20.9658 20.6371 20.9658 20.6362 20.9658 20.6354C20.9644 19.0956 19.7173 17.8474 18.1776 17.8444Z" fill="#EE4C27"/>
<path d="M23.1278 4.4797C23.061 4.46677 22.9932 4.4602 22.9251 4.46009H5.93181L5.66267 2.65955C5.49499 1.46378 4.47216 0.574098 3.26466 0.57373H1.07655C0.481978 0.57373 0 1.05571 0 1.65028C0 2.24486 0.481978 2.72683 1.07655 2.72683H3.26734C3.40423 2.72583 3.52008 2.82776 3.53648 2.9637L5.19436 14.3267C5.42166 15.7706 6.66363 16.8358 8.12528 16.8404H19.3241C20.7313 16.8423 21.9454 15.8532 22.2281 14.4747L23.9802 5.74118C24.0931 5.15743 23.7115 4.59266 23.1278 4.4797Z" fill="#EE4C27"/>
<path d="M11.3404 20.5157C11.2749 19.0195 10.0401 17.8417 8.54243 17.8469C7.0023 17.9092 5.80422 19.2082 5.86645 20.7483C5.92617 22.2261 7.1283 23.4007 8.60704 23.4262H8.67432C10.2142 23.3587 11.4079 22.0556 11.3404 20.5157Z" fill="#EE4C27"/>
</g>
<defs>
<clipPath id="clip0_254_361">
<rect width="24" height="24" fill="white"/>
</clipPath>
</defs>
</svg>
