<svg width="17" height="17" viewBox="0 0 17 17" fill="none" xmlns="http://www.w3.org/2000/svg">
<g clip-path="url(#clip0_536_1320)">
<path d="M16 15.9693V6.4693H13V0.0307617L4 3.63076V6.46926H1V15.9693H0V16.9693H17V15.9693H16V15.9693ZM2 15.9693V7.4693H4V15.9693H2ZM10 15.9693H9V13.4693H10V15.9693ZM8 15.9693H7V13.4693H8V15.9693ZM11 15.9693V12.4693H6V15.9693H5V4.3078L12 1.5078V15.9693H11ZM13 7.4693H15V15.9693H13V7.4693Z" fill="#555555"/>
<path d="M6 10.4692H7V11.4692H6V10.4692Z" fill="#555555"/>
<path d="M8 10.4692H9V11.4692H8V10.4692Z" fill="#555555"/>
<path d="M10 10.4692H11V11.4692H10V10.4692Z" fill="#555555"/>
<path d="M10 8.46924H11V9.46924H10V8.46924Z" fill="#555555"/>
<path d="M8 8.46924H9V9.46924H8V8.46924Z" fill="#555555"/>
<path d="M6 8.46924H7V9.46924H6V8.46924Z" fill="#555555"/>
<path d="M6 6.46924H7V7.46924H6V6.46924Z" fill="#555555"/>
<path d="M8 6.46924H9V7.46924H8V6.46924Z" fill="#555555"/>
<path d="M10 6.46924H11V7.46924H10V6.46924Z" fill="#555555"/>
</g>
<defs>
<clipPath id="clip0_536_1320">
<rect width="17" height="17" fill="white"/>
</clipPath>
</defs>
</svg>
