<svg width="7" height="8" viewBox="0 0 7 8" fill="none" xmlns="http://www.w3.org/2000/svg">
<g clip-path="url(#clip0_547_4281)">
<path d="M4.74674 4.61809L3.77074 3.8861V2.39501C3.77074 2.24509 3.64955 2.1239 3.49963 2.1239C3.3497 2.1239 3.22852 2.24509 3.22852 2.39501V4.02167C3.22852 4.10706 3.26864 4.18759 3.33696 4.23856L4.42139 5.05188C4.47018 5.08848 4.52712 5.10611 4.58378 5.10611C4.66647 5.10611 4.7478 5.06896 4.80095 4.99739C4.89097 4.87781 4.86657 4.70783 4.74674 4.61809Z" fill="#EE4C27"/>
<path d="M3.5 0.5C1.56998 0.5 0 2.06998 0 4C0 5.93002 1.56998 7.5 3.5 7.5C5.43002 7.5 7 5.93002 7 4C7 2.06998 5.43002 0.5 3.5 0.5ZM3.5 6.95779C1.86929 6.95779 0.542213 5.63071 0.542213 4C0.542213 2.36929 1.86929 1.04221 3.5 1.04221C5.13099 1.04221 6.45779 2.36929 6.45779 4C6.45779 5.63071 5.13071 6.95779 3.5 6.95779Z" fill="#EE4C27"/>
</g>
<defs>
<clipPath id="clip0_547_4281">
<rect width="7" height="7" fill="white" transform="translate(0 0.5)"/>
</clipPath>
</defs>
</svg>
