<svg width="26" height="26" viewBox="0 0 26 26" fill="none" xmlns="http://www.w3.org/2000/svg">
<path d="M6.47674 1.07456C6.19529 1.08295 5.92816 1.20061 5.73195 1.40257L1.39861 5.73596C1.19682 5.93896 1.08356 6.21358 1.08356 6.49981C1.08356 6.78604 1.19682 7.06065 1.39861 7.26365L5.73195 11.599C5.93578 11.8021 6.21186 11.9161 6.4996 11.9158C6.78734 11.9155 7.06321 11.8011 7.26667 11.5977C7.47013 11.3942 7.58455 11.1183 7.58481 10.8306C7.58507 10.5428 7.47116 10.2667 7.26807 10.0629L4.79038 7.58528H21.6709V10.9029C21.6575 11.0528 21.6754 11.2038 21.7235 11.3464C21.7716 11.4889 21.8489 11.6198 21.9504 11.7309C22.0519 11.8419 22.1754 11.9306 22.3131 11.9913C22.4508 12.052 22.5996 12.0834 22.75 12.0834C22.9005 12.0834 23.0493 12.052 23.1869 11.9913C23.3246 11.9306 23.4481 11.8419 23.5497 11.7309C23.6512 11.6198 23.7284 11.4889 23.7766 11.3464C23.8247 11.2038 23.8426 11.0528 23.8291 10.9029V7.58528C23.8291 6.40369 22.8525 5.41646 21.6709 5.41646H4.77979L7.26807 2.93025C7.42338 2.77758 7.52908 2.58172 7.57137 2.36808C7.61367 2.15444 7.59059 1.93302 7.50516 1.73269C7.41973 1.53236 7.27591 1.36237 7.09245 1.245C6.909 1.12763 6.69443 1.06817 6.47674 1.07456ZM19.4873 14.0704C19.2717 14.0709 19.0612 14.1356 18.8826 14.2564C18.704 14.3772 18.5655 14.5486 18.4849 14.7485C18.4042 14.9484 18.3851 15.1679 18.4298 15.3788C18.4746 15.5897 18.5813 15.7824 18.7362 15.9323L21.2223 18.4207H4.33334V15.1981C4.33503 15.0537 4.30784 14.9105 4.25336 14.7768C4.19888 14.643 4.11821 14.5215 4.01609 14.4194C3.91398 14.3173 3.79248 14.2366 3.65874 14.1821C3.525 14.1276 3.38172 14.1004 3.23731 14.1021C2.94999 14.1055 2.67578 14.2228 2.475 14.4284C2.27422 14.6339 2.16331 14.9108 2.16668 15.1981V18.4207C2.16668 19.6022 3.15175 20.5789 4.33334 20.5789H21.2223L18.7362 23.0671C18.6284 23.1657 18.5417 23.2851 18.4812 23.4182C18.4208 23.5512 18.3879 23.6952 18.3846 23.8413C18.3812 23.9874 18.4074 24.1326 18.4616 24.2682C18.5158 24.4039 18.5969 24.5273 18.7 24.6309C18.8031 24.7344 18.9261 24.816 19.0616 24.8708C19.197 24.9255 19.3422 24.9523 19.4883 24.9495C19.6343 24.9467 19.7784 24.9145 19.9117 24.8547C20.0449 24.7948 20.1647 24.7085 20.2638 24.6011L24.5972 20.2677C24.6984 20.167 24.7787 20.0474 24.8335 19.9156C24.8882 19.7838 24.9165 19.6425 24.9165 19.4998C24.9165 19.357 24.8882 19.2157 24.8335 19.0839C24.7787 18.9521 24.6984 18.8323 24.5972 18.7317L20.2638 14.3984C20.1629 14.2946 20.0422 14.2121 19.9088 14.1557C19.7754 14.0994 19.6321 14.0704 19.4873 14.0704Z" fill="#E0E1E2"/>
</svg>
