<svg width="17" height="17" viewBox="0 0 17 17" fill="none" xmlns="http://www.w3.org/2000/svg">
<path d="M10.6503 13.2804C10.6447 13.2804 10.6391 13.2804 10.6336 13.2802C10.3403 13.2711 10.11 13.026 10.1188 12.7327L10.3143 6.35771C10.3233 6.06446 10.5616 5.83151 10.8617 5.84293C11.155 5.85196 11.3853 6.09714 11.3765 6.39039L11.181 12.7654C11.1722 13.0533 10.9361 13.2804 10.6503 13.2804Z" fill="#555555"/>
<path d="M6.61588 13.2804C6.33007 13.2804 6.09393 13.0533 6.08516 12.7656L5.88966 6.39063C5.88063 6.09738 6.11093 5.85221 6.40444 5.84318C6.69875 5.83175 6.94286 6.06444 6.9519 6.35796L7.1474 12.733C7.15643 13.0262 6.92613 13.2714 6.63261 13.2804C6.62704 13.2804 6.62146 13.2804 6.61588 13.2804Z" fill="#555555"/>
<path d="M8.76587 13.2804C8.47262 13.2804 8.23462 13.0424 8.23462 12.7491V6.37415C8.23462 6.0809 8.47262 5.8429 8.76587 5.8429C9.05912 5.8429 9.29712 6.0809 9.29712 6.37415V12.7491C9.29712 13.0427 9.05938 13.2804 8.76587 13.2804Z" fill="#555555"/>
<path d="M11.9537 15.4054H5.04688C4.75363 15.4054 4.51562 15.1674 4.51562 14.8741C4.51562 14.5809 4.75363 14.3429 5.04688 14.3429H11.9537C12.2469 14.3429 12.4849 14.5809 12.4849 14.8741C12.4849 15.1674 12.2472 15.4054 11.9537 15.4054Z" fill="#555555"/>
<path d="M12.4847 14.9008C12.4757 14.9008 12.4669 14.9005 12.4576 14.9003C12.1646 14.8856 11.9388 14.6362 11.9537 14.343L12.4597 4.22266C12.4746 3.92967 12.7232 3.70788 13.017 3.71877C13.31 3.73338 13.5358 3.9828 13.5209 4.27605L13.0149 14.3964C13.0008 14.68 12.7662 14.9008 12.4847 14.9008Z" fill="#555555"/>
<path d="M11.9536 15.4055C11.6604 15.4055 11.4224 15.1675 11.4224 14.8742C11.4224 14.581 11.6604 14.343 11.9536 14.343H11.9541C11.969 14.0497 12.2168 13.8205 12.5112 13.8391C12.8041 13.8537 13.0297 14.1031 13.0148 14.3964C12.9866 14.9621 12.5205 15.4055 11.9536 15.4055Z" fill="#555555"/>
<path d="M4.51588 14.9008C4.23458 14.9008 4.00003 14.68 3.98569 14.3961L3.47968 4.27576C3.46507 3.98251 3.69058 3.73335 3.98357 3.71848C4.27921 3.70493 4.52597 3.92965 4.54085 4.22237L5.04686 14.3429C5.06147 14.6362 4.83596 14.8854 4.54297 14.9002C4.53368 14.9005 4.52464 14.9008 4.51588 14.9008Z" fill="#555555"/>
<path d="M5.04683 15.4054C4.47998 15.4054 4.01381 14.9621 3.98566 14.396C3.97105 14.1028 4.19656 13.8536 4.48955 13.8387C4.78492 13.8249 5.03195 14.0496 5.04683 14.3426V14.3432C5.34008 14.3432 5.57808 14.5809 5.57808 14.8741C5.57808 15.1674 5.34008 15.4054 5.04683 15.4054Z" fill="#555555"/>
<path d="M10.625 4.7804C10.3318 4.7804 10.0938 4.5424 10.0938 4.24915V2.6554C10.0938 2.36215 10.3318 2.12415 10.625 2.12415C10.9182 2.12415 11.1562 2.36215 11.1562 2.6554V4.24915C11.1562 4.54266 10.9182 4.7804 10.625 4.7804Z" fill="#555555"/>
<path d="M6.375 4.7804C6.08175 4.7804 5.84375 4.5424 5.84375 4.24915V2.6554C5.84375 2.36215 6.08175 2.12415 6.375 2.12415C6.66825 2.12415 6.90625 2.36215 6.90625 2.6554V4.24915C6.90625 4.54266 6.66825 4.7804 6.375 4.7804Z" fill="#555555"/>
<path d="M13.8131 4.7804H3.18701C2.89376 4.7804 2.65576 4.5424 2.65576 4.24915C2.65576 3.9559 2.89376 3.7179 3.18701 3.7179H13.8133C14.1066 3.7179 14.3446 3.9559 14.3446 4.24915C14.3446 4.5424 14.1066 4.7804 13.8131 4.7804Z" fill="#555555"/>
<path d="M6.37473 3.18665C6.08148 3.18665 5.84375 2.94865 5.84375 2.6554C5.84375 2.06943 6.32028 1.5929 6.90625 1.5929C7.1995 1.5929 7.4375 1.8309 7.4375 2.12415C7.4375 2.4174 7.1995 2.6554 6.90625 2.6554H6.90572C6.90572 2.94891 6.66825 3.18665 6.37473 3.18665Z" fill="#555555"/>
<path d="M10.0938 2.6554H6.90625C6.613 2.6554 6.375 2.4174 6.375 2.12415C6.375 1.8309 6.613 1.5929 6.90625 1.5929H10.0938C10.387 1.5929 10.625 1.8309 10.625 2.12415C10.625 2.4174 10.387 2.6554 10.0938 2.6554Z" fill="#555555"/>
<path d="M10.625 3.18665C10.3318 3.18665 10.0938 2.94865 10.0938 2.6554V2.65486C9.8005 2.65486 9.5625 2.4174 9.5625 2.12388C9.5625 1.83063 9.8005 1.5929 10.0938 1.5929C10.6797 1.5929 11.1562 2.06943 11.1562 2.6554C11.1562 2.94891 10.9182 3.18665 10.625 3.18665Z" fill="#555555"/>
</svg>
