<svg width="18" height="14" viewBox="0 0 18 14" fill="none" xmlns="http://www.w3.org/2000/svg">
<path d="M11.273 0.829956H1.50159C1.21354 0.829956 0.987305 1.05619 0.987305 1.34424V7.51567C0.987305 7.79848 1.21354 8.02996 1.50159 8.02996H11.273C11.5559 8.02996 11.7873 7.79848 11.7873 7.51567V1.34424C11.7873 1.05619 11.5559 0.829956 11.273 0.829956Z" fill="#D3D1D1"/>
<path d="M0.982422 10.6014C0.982422 10.8842 1.21385 11.1157 1.49671 11.1157H2.05214C2.26814 10.0408 3.15271 9.19742 4.25328 9.05856H1.50185C1.31666 9.05856 1.14704 9.02766 0.982422 8.96594V10.6014Z" fill="#D3D1D1"/>
<path d="M15.8659 11.1157H16.5036C16.7865 11.1157 17.0179 10.8842 17.0179 10.6014V6.09622C17.0179 5.28874 15.0482 3.40137 13.9683 3.40137H12.8163V7.51565C12.8163 8.36417 12.1219 9.05851 11.2734 9.05851H4.92188C6.0225 9.19737 6.90707 10.0407 7.12302 11.1157H10.795C11.0316 9.9328 12.0756 9.0328 13.3305 9.0328C14.5802 9.03274 15.6294 9.93274 15.8659 11.1157ZM13.6596 4.66646C16.2928 4.53789 16.1848 7.25846 16.1848 7.25846H13.6596V4.66646Z" fill="#D3D1D1"/>
<path d="M13.3285 13.1699C14.1863 13.1699 14.8817 12.4745 14.8817 11.6167C14.8817 10.759 14.1863 10.0636 13.3285 10.0636C12.4708 10.0636 11.7754 10.759 11.7754 11.6167C11.7754 12.4745 12.4708 13.1699 13.3285 13.1699Z" fill="#D3D1D1"/>
<path d="M4.58537 13.1699C5.44315 13.1699 6.13851 12.4745 6.13851 11.6167C6.13851 10.759 5.44315 10.0636 4.58537 10.0636C3.72759 10.0636 3.03223 10.759 3.03223 11.6167C3.03223 12.4745 3.72759 13.1699 4.58537 13.1699Z" fill="#D3D1D1"/>
</svg>
