<svg width="14" height="14" viewBox="0 0 14 14" fill="none" xmlns="http://www.w3.org/2000/svg">
<path d="M12.7695 1.66797H1.23047C0.552836 1.66797 0 2.2202 0 2.89844V11.1016C0 11.7775 0.550375 12.332 1.23047 12.332H12.7695C13.4455 12.332 14 11.7817 14 11.1016V2.89844C14 2.2225 13.4496 1.66797 12.7695 1.66797ZM12.5996 2.48828L7.02609 8.06184L1.40435 2.48828H12.5996ZM0.820312 10.9317V3.06439L4.77091 6.98111L0.820312 10.9317ZM1.40036 11.5117L5.35344 7.55863L6.73859 8.93189C6.89894 9.09087 7.15769 9.09035 7.31738 8.93063L8.66797 7.58004L12.5996 11.5117H1.40036ZM13.1797 10.9317L9.24801 7L13.1797 3.0683V10.9317Z" fill="#555555"/>
</svg>
