<svg width="22" height="22" viewBox="0 0 22 22" fill="none" xmlns="http://www.w3.org/2000/svg">
<path d="M7.16539 3.93194C8.34313 3.95614 9.4903 4.49294 10.3126 5.9178C10.6182 6.44629 11.3808 6.44629 11.6876 5.9178C12.5102 4.49318 13.6573 3.95638 14.8348 3.93194C16.0126 3.90627 17.2182 4.46165 17.9618 5.35534C19.3967 7.08185 19.58 10.099 17.4792 12.2127L11 17.7954L4.51977 12.2127C2.42024 10.0993 2.60235 7.08185 4.03846 5.35534C4.78206 4.46165 5.98766 3.90627 7.16539 3.93194ZM7.19962 2.34207C5.51661 2.30614 3.88324 3.05756 2.81624 4.33943C0.842837 6.71274 0.724281 10.6593 3.39801 13.3418C3.41219 13.3562 3.42735 13.3699 3.44275 13.3839L10.482 19.4463C10.78 19.7023 11.2205 19.7023 11.5182 19.4463L18.5587 13.3839C18.5741 13.3699 18.588 13.3562 18.6022 13.3418C21.2759 10.659 21.1559 6.71274 19.1828 4.33943C18.1172 3.05731 16.4824 2.30589 14.8004 2.34207C13.4051 2.37091 12.0594 3.14629 11 4.41569C9.94081 3.14629 8.59515 2.37091 7.19962 2.34207Z" fill="white"/>
</svg>
