<svg width="19" height="19" viewBox="0 0 19 19" fill="none" xmlns="http://www.w3.org/2000/svg">
<path d="M13.4582 3.95838C13.4582 3.48864 13.5975 3.02946 13.8584 2.6389C14.1194 2.24833 14.4903 1.94392 14.9243 1.76416C15.3583 1.5844 15.8358 1.53737 16.2965 1.62901C16.7572 1.72065 17.1804 1.94685 17.5125 2.279C17.8447 2.61115 18.0709 3.03433 18.1625 3.49504C18.2542 3.95574 18.2071 4.43327 18.0274 4.86725C17.8476 5.30122 17.5432 5.67215 17.1526 5.93312C16.7621 6.19408 16.3029 6.33338 15.8332 6.33338C15.2033 6.33338 14.5992 6.08315 14.1538 5.63775C13.7084 5.19236 13.4582 4.58826 13.4582 3.95838ZM1.58317 4.75004H11.0832C11.2931 4.75004 11.4945 4.66663 11.643 4.51817C11.7914 4.3697 11.8748 4.16834 11.8748 3.95838C11.8748 3.74841 11.7914 3.54705 11.643 3.39858C11.4945 3.25012 11.2931 3.16671 11.0832 3.16671H1.58317C1.37321 3.16671 1.17184 3.25012 1.02338 3.39858C0.874911 3.54705 0.791504 3.74841 0.791504 3.95838C0.791504 4.16834 0.874911 4.3697 1.02338 4.51817C1.17184 4.66663 1.37321 4.75004 1.58317 4.75004ZM6.33317 7.12504C5.84317 7.12642 5.36559 7.27932 4.96591 7.56279C4.56623 7.84625 4.264 8.2464 4.10067 8.70838H1.58317C1.37321 8.70838 1.17184 8.79178 1.02338 8.94025C0.874911 9.08872 0.791504 9.29008 0.791504 9.50004C0.791504 9.71001 0.874911 9.91137 1.02338 10.0598C1.17184 10.2083 1.37321 10.2917 1.58317 10.2917H4.10067C4.2459 10.7025 4.50134 11.0654 4.83901 11.3407C5.17669 11.6161 5.5836 11.7932 6.01521 11.8527C6.44681 11.9123 6.88649 11.852 7.28611 11.6784C7.68573 11.5048 8.02989 11.2246 8.28094 10.8685C8.53199 10.5124 8.68025 10.0941 8.70949 9.6594C8.73872 9.22469 8.64781 8.79031 8.44671 8.4038C8.2456 8.01729 7.94205 7.69355 7.56928 7.46801C7.1965 7.24247 6.76887 7.12382 6.33317 7.12504ZM17.4165 8.70838H11.0832C10.8732 8.70838 10.6718 8.79178 10.5234 8.94025C10.3749 9.08872 10.2915 9.29008 10.2915 9.50004C10.2915 9.71001 10.3749 9.91137 10.5234 10.0598C10.6718 10.2083 10.8732 10.2917 11.0832 10.2917H17.4165C17.6265 10.2917 17.8278 10.2083 17.9763 10.0598C18.1248 9.91137 18.2082 9.71001 18.2082 9.50004C18.2082 9.29008 18.1248 9.08872 17.9763 8.94025C17.8278 8.79178 17.6265 8.70838 17.4165 8.70838ZM7.9165 14.25H1.58317C1.37321 14.25 1.17184 14.3335 1.02338 14.4819C0.874911 14.6304 0.791504 14.8317 0.791504 15.0417C0.791504 15.2517 0.874911 15.453 1.02338 15.6015C1.17184 15.75 1.37321 15.8334 1.58317 15.8334H7.9165C8.12647 15.8334 8.32783 15.75 8.4763 15.6015C8.62476 15.453 8.70817 15.2517 8.70817 15.0417C8.70817 14.8317 8.62476 14.6304 8.4763 14.4819C8.32783 14.3335 8.12647 14.25 7.9165 14.25ZM17.4165 14.25H14.899C14.7123 13.7218 14.3448 13.2766 13.8615 12.9932C13.3783 12.7097 12.8104 12.6062 12.2582 12.7009C11.706 12.7957 11.2051 13.0825 10.844 13.5109C10.4829 13.9392 10.2848 14.4815 10.2848 15.0417C10.2848 15.602 10.4829 16.1442 10.844 16.5725C11.2051 17.0009 11.706 17.2878 12.2582 17.3825C12.8104 17.4772 13.3783 17.3737 13.8615 17.0903C14.3448 16.8068 14.7123 16.3616 14.899 15.8334H17.4165C17.6265 15.8334 17.8278 15.75 17.9763 15.6015C18.1248 15.453 18.2082 15.2517 18.2082 15.0417C18.2082 14.8317 18.1248 14.6304 17.9763 14.4819C17.8278 14.3335 17.6265 14.25 17.4165 14.25Z" fill="#555555"/>
</svg>
