<svg width="20" height="18" viewBox="0 0 20 18" fill="none" xmlns="http://www.w3.org/2000/svg">
<path d="M19.2075 17.9793H13.5409C13.353 17.9793 13.1728 17.9046 13.04 17.7718C12.9071 17.639 12.8325 17.4588 12.8325 17.2709V11.6043C12.8325 11.4164 12.7579 11.2362 12.6251 11.1034C12.4922 10.9705 12.312 10.8959 12.1242 10.8959H7.87422C7.68632 10.8959 7.50622 10.9705 7.37332 11.1034C7.24052 11.2362 7.16592 11.4164 7.16592 11.6043V17.2709C7.16592 17.4588 7.09122 17.639 6.95842 17.7718C6.82552 17.9046 6.64542 17.9793 6.45752 17.9793H0.79092C0.60302 17.9793 0.42282 17.9046 0.29002 17.7718C0.15712 17.639 0.0825195 17.4588 0.0825195 17.2709V9.08079C0.16132 9.02719 0.253018 8.99709 0.324718 8.93249L9.99922 0.403687L19.683 8.94359C19.7512 9.00469 19.8406 9.03209 19.9159 9.08519V17.2709C19.9159 17.4588 19.8412 17.639 19.7084 17.7718C19.5756 17.9046 19.3954 17.9793 19.2075 17.9793Z" fill="white"/>
</svg>
