<?xml version="1.0" encoding="iso-8859-1"?>
<!-- Generator: Adobe Illustrator 19.0.0, SVG Export Plug-In . SVG Version: 6.00 Build 0)  -->
<svg version="1.1" id="Layer_1" xmlns="http://www.w3.org/2000/svg" xmlns:xlink="http://www.w3.org/1999/xlink" x="0px" y="0px"
	 viewBox="0 0 512 512" style="enable-background:new 0 0 512 512;" xml:space="preserve">
<g>
	<g>
		<path d="M195.708,268.059c-0.821-4.11-29.103-145.52-30-150.001C164.307,111.047,158.15,106,151,106h-30
			c-7.15,0-13.307,5.047-14.708,12.058c-0.911,4.557-29.222,146.111-30,150c-1.625,8.124,3.644,16.026,11.767,17.65
			c8.123,1.625,16.026-3.644,17.65-11.767L115.297,226h41.406l9.588,47.942c1.625,8.127,9.531,13.392,17.65,11.767
			C192.064,284.084,197.333,276.182,195.708,268.059z M121.297,196l12-60h5.406l12,60H121.297z"/>
	</g>
</g>
<g>
	<g>
		<path d="M436,226h-45v-15c0-8.284-6.716-15-15-15s-15,6.716-15,15v15h-45c-8.284,0-15,6.716-15,15s6.716,15,15,15h3.63
			c8.547,27.612,21.415,48.806,35.575,65.79c-11.525,10.542-23.187,19.187-33.575,27.497c-6.469,5.175-7.518,14.614-2.342,21.083
			c5.178,6.472,14.618,7.515,21.083,2.342c10.446-8.357,22.967-17.644,35.629-29.264c12.671,11.628,25.215,20.932,35.629,29.264
			c6.469,5.176,15.909,4.126,21.083-2.342c5.175-6.469,4.126-15.909-2.342-21.083c-10.361-8.291-22.038-16.945-33.575-27.497
			c14.16-16.984,27.028-38.178,35.575-65.79H436c8.284,0,15-6.716,15-15S444.284,226,436,226z M376,299.745
			c-9.575-12.02-18.189-26.367-24.683-43.845h49.365C394.189,273.378,385.575,287.725,376,299.745z"/>
	</g>
</g>
<g>
	<g>
		<path d="M467,91H250.599l-6.43-51.582C241.36,16.946,222.164,0,199.517,0H45C20.187,0,0,20.187,0,45v331c0,24.813,20.187,45,45,45
			h126.483l6.348,51.582c2.804,22.427,22,39.418,44.653,39.418H467c24.813,0,45-20.187,45-45V136C512,111.187,491.813,91,467,91z
			 M45,391c-8.271,0-15-6.729-15-15V45c0-8.271,6.729-15,15-15h154.517c7.549,0,13.948,5.648,14.883,13.134
			c2.174,17.436,41.208,330.57,43.364,347.866H45z M206.724,461.75L201.709,421h40.244L206.724,461.75z M482,467
			c0,8.271-6.729,15-15,15H228.874l57.104-66.053c2.923-3.297,4.233-7.674,3.629-12.024L254.339,121H467c8.271,0,15,6.729,15,15V467
			z"/>
	</g>
</g>
<g>
</g>
<g>
</g>
<g>
</g>
<g>
</g>
<g>
</g>
<g>
</g>
<g>
</g>
<g>
</g>
<g>
</g>
<g>
</g>
<g>
</g>
<g>
</g>
<g>
</g>
<g>
</g>
<g>
</g>
</svg>
