<svg width="74" height="70" viewBox="0 0 74 70" fill="none" xmlns="http://www.w3.org/2000/svg">
<rect x="1" y="1" width="72" height="68" rx="20" fill="#EE4C27" stroke="white" stroke-width="2"/>
<path fill-rule="evenodd" clip-rule="evenodd" d="M19.1075 19.7547C19.2429 19.0778 19.9015 18.6388 20.5784 18.7741L22.3273 19.1239C24.3028 19.519 25.7886 21.1577 25.9891 23.1622L26.1312 24.5832H48.7569C52.0641 24.5832 54.4906 27.6911 53.6886 30.8994L51.8173 38.3845C51.0289 41.5377 48.1958 43.7499 44.9454 43.7499H29.9572C27.6371 43.7499 25.6829 42.0162 25.4065 39.7127L23.7574 25.9699L23.5015 23.411C23.4104 22.4998 22.735 21.755 21.837 21.5754L20.0881 21.2256C19.4112 21.0902 18.9721 20.4317 19.1075 19.7547ZM26.4089 27.0832L27.8887 39.4147C28.0143 40.4619 28.9026 41.2499 29.9572 41.2499H44.9454C47.0486 41.2499 48.8818 39.8185 49.3919 37.7782L51.2631 30.2931C51.6708 28.6626 50.4376 27.0832 48.7569 27.0832H26.4089Z" fill="white"/>
<path fill-rule="evenodd" clip-rule="evenodd" d="M30.75 37.5C30.75 36.8097 31.3097 36.25 32 36.25H38.6667C39.357 36.25 39.9167 36.8097 39.9167 37.5C39.9167 38.1903 39.357 38.75 38.6667 38.75H32C31.3097 38.75 30.75 38.1903 30.75 37.5Z" fill="white"/>
<path d="M33.6667 48.3334C33.6667 49.714 32.5475 50.8334 31.1667 50.8334C29.786 50.8334 28.6667 49.714 28.6667 48.3334C28.6667 46.9527 29.786 45.8334 31.1667 45.8334C32.5475 45.8334 33.6667 46.9527 33.6667 48.3334Z" fill="white"/>
<path d="M48.6667 48.3334C48.6667 49.714 47.5474 50.8334 46.1667 50.8334C44.7861 50.8334 43.6667 49.714 43.6667 48.3334C43.6667 46.9527 44.7861 45.8334 46.1667 45.8334C47.5474 45.8334 48.6667 46.9527 48.6667 48.3334Z" fill="white"/>
</svg>
