<svg width="17" height="17" viewBox="0 0 17 17" fill="none" xmlns="http://www.w3.org/2000/svg">
<path d="M8.50002 0C5.10516 0 2.34326 2.7619 2.34326 6.15672C2.34326 10.3698 7.85295 16.5548 8.08753 16.8161C8.30787 17.0615 8.69256 17.0611 8.9125 16.8161C9.14708 16.5548 14.6568 10.3698 14.6568 6.15672C14.6567 2.7619 11.8948 0 8.50002 0ZM8.50002 15.5965C6.64572 13.3938 3.45198 9.04825 3.45198 6.15679C3.45198 3.37324 5.7165 1.10872 8.50002 1.10872C11.2835 1.10872 13.5481 3.37324 13.5481 6.15676C13.548 9.04835 10.3548 13.3931 8.50002 15.5965Z" fill="#555555"/>
<path d="M8.49993 3.05908C6.79189 3.05908 5.40234 4.44867 5.40234 6.1567C5.40234 7.86474 6.79193 9.25432 8.49993 9.25432C10.2079 9.25432 11.5975 7.86474 11.5975 6.1567C11.5975 4.44867 10.2079 3.05908 8.49993 3.05908ZM8.49993 8.1456C7.40323 8.1456 6.51106 7.2534 6.51106 6.1567C6.51106 5.06 7.40326 4.1678 8.49993 4.1678C9.5966 4.1678 10.4888 5.06 10.4888 6.1567C10.4888 7.2534 9.5966 8.1456 8.49993 8.1456Z" fill="#555555"/>
</svg>
