<svg width="24" height="24" viewBox="0 0 24 24" fill="none" xmlns="http://www.w3.org/2000/svg">
<path d="M20.5 4.5H3.5C2.67139 4.5 2 5.17139 2 6C2 6.82861 2.67139 7.5 3.5 7.5H20.5C21.3286 7.5 22 6.82861 22 6C22 5.17139 21.3286 4.5 20.5 4.5Z" fill="white"/>
<path d="M17.6665 10.5H3.5C2.67139 10.5 2 11.1714 2 12C2 12.8286 2.67139 13.5 3.5 13.5H17.6665C18.4951 13.5 19.1665 12.8286 19.1665 12C19.1665 11.1714 18.4951 10.5 17.6665 10.5Z" fill="white"/>
<path d="M12 16.5H3.5C2.67139 16.5 2 17.1714 2 18C2 18.8286 2.67139 19.5 3.5 19.5H12C12.8286 19.5 13.5 18.8286 13.5 18C13.5 17.1714 12.8286 16.5 12 16.5Z" fill="white"/>
</svg>
