<svg height="512pt" viewBox="0 0 512 512" width="512pt" xmlns="http://www.w3.org/2000/svg"><path d="m256 144.601562c-52.566406 0-95.332031 42.765626-95.332031 95.332032s42.765625 95.332031 95.332031 95.332031 95.332031-42.765625 95.332031-95.332031-42.765625-95.332032-95.332031-95.332032zm0 160.664063c-36.023438 0-65.332031-29.308594-65.332031-65.332031 0-36.023438 29.308593-65.332032 65.332031-65.332032s65.332031 29.304688 65.332031 65.332032c0 36.023437-29.308593 65.332031-65.332031 65.332031zm0 0"/><path d="m493.488281 18.511719c-11.933593-11.9375-27.804687-18.511719-44.6875-18.511719h-385.601562c-16.882813 0-32.753907 6.574219-44.6875 18.511719-11.9375 11.933593-18.511719 27.804687-18.511719 44.6875v64.269531c0 16.878906 6.574219 32.75 18.511719 44.6875s27.808593 18.511719 44.6875 18.511719h33.199219v274.199219c0 12.589843 4.902343 24.425781 13.804687 33.328124 8.902344 8.902344 20.738281 13.804688 33.328125 13.804688h224.9375c12.589844 0 24.425781-4.902344 33.328125-13.804688 8.898437-8.902343 13.804687-20.738281 13.804687-33.328124v-274.203126h33.199219c16.882813 0 32.753907-6.570312 44.6875-18.507812 11.9375-11.9375 18.511719-27.808594 18.511719-44.6875v-64.269531c0-16.882813-6.574219-32.753907-18.511719-44.6875zm-107.886719 446.355469c0 4.578124-1.785156 8.878906-5.019531 12.113281-3.234375 3.238281-7.539062 5.019531-12.113281 5.019531h-224.9375c-4.574219 0-8.878906-1.78125-12.113281-5.019531-3.234375-3.234375-5.019531-7.539063-5.019531-12.113281v-354.535157h259.203124zm96.398438-337.398438c0 8.867188-3.453125 17.203125-9.726562 23.472656-6.269532 6.273438-14.605469 9.726563-23.472657 9.726563h-33.203125v-50.332031h17.136719c8.28125 0 15-6.71875 15-15 0-8.285157-6.71875-15-15-15h-353.46875c-8.28125 0-15 6.714843-15 15 0 8.28125 6.71875 15 15 15h17.132813v50.332031h-33.199219c-8.867188 0-17.203125-3.453125-23.476563-9.726563-6.269531-6.269531-9.722656-14.605468-9.722656-23.472656v-64.269531c0-8.867188 3.453125-17.203125 9.726562-23.476563 6.269532-6.269531 14.605469-9.722656 23.472657-9.722656h385.601562c8.867188 0 17.203125 3.453125 23.476563 9.726562 6.269531 6.269532 9.722656 14.605469 9.722656 23.472657zm0 0"/><path d="m336.332031 401.667969h-160.664062c-8.285157 0-15 6.714843-15 15 0 8.28125 6.714843 15 15 15h160.664062c8.285157 0 15-6.71875 15-15 0-8.285157-6.714843-15-15-15zm0 0"/></svg>