<svg width="16" height="16" viewBox="0 0 16 16" fill="none" xmlns="http://www.w3.org/2000/svg">
<g clip-path="url(#clip0_400_5298)">
<path d="M13.9909 0.363647H2.00938C1.10199 0.363647 0.36377 1.10184 0.36377 2.00922V12.0737C0.36377 12.9811 1.10199 13.7193 2.00938 13.7193H5.89775L7.6837 15.5053C7.76761 15.5892 7.88141 15.6364 8.0001 15.6364C8.11876 15.6364 8.23256 15.5892 8.3165 15.5053L10.1025 13.7193H13.9909C14.8983 13.7193 15.6365 12.9811 15.6365 12.0737V2.00922C15.6365 1.10184 14.8983 0.363647 13.9909 0.363647ZM14.7416 12.0737C14.7416 12.4877 14.4048 12.8244 13.9909 12.8244H9.91716C9.79847 12.8244 9.68467 12.8716 9.60079 12.9555L8.0001 14.5562L6.39948 12.9555C6.31557 12.8716 6.20177 12.8244 6.08308 12.8244H2.00938C1.59543 12.8244 1.25866 12.4877 1.25866 12.0737V2.00922C1.25866 1.59528 1.59543 1.25853 2.00938 1.25853H13.9909C14.4048 1.25853 14.7416 1.59528 14.7416 2.00922V12.0737Z" fill="#555555"/>
<path d="M11.8437 5.51053L9.46515 5.16481L8.40113 3.00926C8.32575 2.85657 8.17022 2.75989 7.99989 2.75989C7.8296 2.75989 7.67406 2.85657 7.59869 3.00929L6.53475 5.16481L4.15606 5.51053C3.98752 5.53502 3.8475 5.65306 3.79485 5.81506C3.74223 5.97703 3.78614 6.15485 3.90809 6.27372L5.62943 7.95154L5.22315 10.3206C5.19436 10.4885 5.26336 10.6581 5.40114 10.7583C5.53896 10.8583 5.72163 10.8716 5.87236 10.7923L7.99989 9.67381L10.1276 10.7923C10.1931 10.8267 10.2646 10.8437 10.3358 10.8437H10.3376C10.5842 10.8431 10.7839 10.643 10.7839 10.3963C10.7839 10.3619 10.78 10.3284 10.7727 10.2963L10.3703 7.95154L12.0916 6.27375C12.2136 6.15488 12.2575 5.97706 12.2049 5.81509C12.1523 5.65306 12.0122 5.53502 11.8437 5.51053ZM9.57722 7.4749C9.47174 7.57769 9.42363 7.72582 9.44853 7.87097L9.74152 9.57829L8.2081 8.77224C8.07775 8.70372 7.92204 8.70372 7.79168 8.77224L6.25841 9.57832L6.55122 7.87094C6.5761 7.72579 6.52798 7.57769 6.42254 7.47493L5.18199 6.26572L6.89626 6.01656C7.04198 5.99538 7.16795 5.90386 7.23312 5.77181L7.99992 4.21825L8.76681 5.77184C8.83199 5.90386 8.95793 5.99538 9.10367 6.01656L10.8178 6.26572L9.57722 7.4749Z" fill="#555555"/>
</g>
<defs>
<clipPath id="clip0_400_5298">
<rect width="15.2727" height="15.2727" fill="white" transform="translate(0.36377 0.363647)"/>
</clipPath>
</defs>
</svg>
