<svg width="22" height="25" viewBox="0 0 22 25" fill="none" xmlns="http://www.w3.org/2000/svg">
<path d="M15.25 14.7321C13.889 14.7321 13.234 15.4911 11 15.4911C8.766 15.4911 8.116 14.7321 6.75 14.7321C3.23 14.7321 0.375 17.5876 0.375 21.1071V22.3214C0.375 23.5784 1.39501 24.5982 2.65201 24.5982H19.348C20.605 24.5982 21.625 23.5784 21.625 22.3214V21.1071C21.625 17.5876 18.77 14.7321 15.25 14.7321ZM19.348 22.3214H2.65201V21.1071C2.65201 18.8493 4.492 17.0089 6.75 17.0089C7.443 17.0089 8.567 17.7679 11 17.7679C13.452 17.7679 14.553 17.0089 15.25 17.0089C17.508 17.0089 19.348 18.8493 19.348 21.1071V22.3214ZM11 13.9732C14.771 13.9732 17.83 10.9138 17.83 7.1429C17.83 3.3719 14.771 0.3125 11 0.3125C7.229 0.3125 4.17001 3.3719 4.17001 7.1429C4.17001 10.9138 7.229 13.9732 11 13.9732ZM11 2.5893C13.509 2.5893 15.554 4.6336 15.554 7.1429C15.554 9.6521 13.509 11.6964 11 11.6964C8.491 11.6964 6.44601 9.6521 6.44601 7.1429C6.44601 4.6336 8.491 2.5893 11 2.5893Z" fill="white"/>
</svg>
