<svg width="12" height="12" viewBox="0 0 12 12" fill="none" xmlns="http://www.w3.org/2000/svg">
<g clip-path="url(#clip0_400_5287)">
<path d="M0.822178 3.31182L0.83106 3.29647C0.843366 3.27094 0.857569 3.2465 0.873412 3.22327L2.54285 0.337032C2.6631 0.129141 2.88698 0 3.12714 0H8.87255C9.11309 0 9.33716 0.129446 9.45737 0.337899L11.154 3.28133C11.1693 3.30786 11.1803 3.33561 11.1881 3.3638C11.212 3.42828 11.2251 3.49796 11.2251 3.57066V11.173C11.2251 11.629 10.8541 12 10.3981 12H1.6019C1.1459 12 0.774904 11.629 0.774904 11.173V3.5428C0.774904 3.5326 0.775209 3.52248 0.775748 3.5124C0.770967 3.44473 0.785639 3.37496 0.822178 3.31182ZM5.63627 0.703384H3.1435L1.83025 2.97385H5.63627V0.703384ZM8.85617 0.703384H6.33966V2.97385H10.1649L8.85617 0.703384ZM1.47829 11.173C1.47829 11.2412 1.53374 11.2966 1.6019 11.2966H10.3981C10.4663 11.2966 10.5217 11.2412 10.5217 11.173V3.67723H1.47829V11.173Z" fill="#555555"/>
<path d="M4.40334 6.3287C4.54066 6.19138 4.76337 6.19138 4.90071 6.3287L6.47107 7.89906L7.07492 7.29522C7.21224 7.1579 7.43494 7.1579 7.57228 7.29522C7.70963 7.43254 7.70963 7.65524 7.57228 7.79258L6.71972 8.6451C6.65105 8.71377 6.56102 8.74813 6.47105 8.74813C6.38107 8.74813 6.29102 8.71377 6.22238 8.6451L4.40334 6.82607C4.266 6.68872 4.266 6.46604 4.40334 6.3287Z" fill="#555555"/>
</g>
<defs>
<clipPath id="clip0_400_5287">
<rect width="12" height="12" fill="white" transform="matrix(-1 0 0 1 12 0)"/>
</clipPath>
</defs>
</svg>
