<svg width="10" height="10" viewBox="0 0 10 10" fill="none" xmlns="http://www.w3.org/2000/svg">
<g clip-path="url(#clip0_539_1327)">
<path d="M3.33313 3.33324C5.24084 3.33324 6.6663 2.57909 6.6663 1.90476C6.6663 1.2305 5.24081 0.476318 3.33313 0.476318C1.42546 0.476318 0 1.2305 0 1.90476C0 2.57909 1.42543 3.33324 3.33313 3.33324Z" fill="#1EC892"/>
<path d="M3.33313 9.04737C3.61158 9.04737 3.87957 9.03118 4.13449 9.00169C3.91961 8.72553 3.74191 8.41908 3.60878 8.08997C3.51731 8.09305 3.42552 8.09517 3.3331 8.09517C2.24304 8.09517 1.21074 7.87918 0.426428 7.48701C0.271998 7.40979 0.129887 7.32683 0 7.23901V7.61893C0 8.29319 1.42543 9.04737 3.33313 9.04737Z" fill="#1EC892"/>
<path d="M3.33316 7.14259C3.34294 7.14259 3.35256 7.14243 3.36231 7.1424C3.34278 6.98632 3.33259 6.82735 3.33259 6.66606C3.33259 6.50483 3.34275 6.34596 3.36231 6.19001C3.35256 6.19001 3.34291 6.19036 3.33316 6.19036C2.24311 6.19036 1.21083 5.97436 0.426492 5.58219C0.27203 5.50498 0.129887 5.42202 0 5.33423V5.71411C3.17496e-05 6.38841 1.42546 7.14259 3.33316 7.14259Z" fill="#1EC892"/>
<path d="M3.33316 5.23789C3.42765 5.23789 3.52087 5.23599 3.61291 5.23237C3.76074 4.86969 3.96276 4.5347 4.20907 4.23762C3.9239 4.26906 3.63082 4.28572 3.33316 4.28572C2.24311 4.28572 1.21083 4.06973 0.426492 3.67756C0.27203 3.60031 0.129887 3.51738 0 3.42957V3.80948C3.17496e-05 4.48378 1.42546 5.23789 3.33316 5.23789Z" fill="#1EC892"/>
<path d="M4.76194 5.08768C4.55588 5.39746 4.40866 5.74953 4.33624 6.12786C4.30281 6.30226 4.28516 6.48219 4.28516 6.66618C4.28516 6.80451 4.29525 6.94052 4.31433 7.07365C4.36123 7.4007 4.46368 7.70994 4.61183 7.99166C4.76727 8.28728 4.97292 8.55255 5.21748 8.7759C5.72573 9.24011 6.40168 9.52364 7.14262 9.52364C8.71822 9.52364 10.0001 8.24178 10.0001 6.66618C10.0001 5.09054 8.71822 3.80872 7.14262 3.80872C6.97977 3.80872 6.8201 3.82262 6.6646 3.84891C5.87251 3.98286 5.19027 4.44383 4.76194 5.08768Z" fill="#1EC892"/>
</g>
<defs>
<clipPath id="clip0_539_1327">
<rect width="10" height="10" fill="white"/>
</clipPath>
</defs>
</svg>
