<svg width="17" height="17" viewBox="0 0 17 17" fill="none" xmlns="http://www.w3.org/2000/svg">
<path d="M8.5 0.5C6 0.5 4 2.5 4 5V7C3.15 7 2.5 7.65 2.5 8.5V15C2.5 15.85 3.15 16.5 4 16.5H13C13.85 16.5 14.5 15.85 14.5 15V8.5C14.5 7.65 13.85 7 13 7V5C13 2.5 11 0.5 8.5 0.5ZM13.5 8.5V15C13.5 15.3 13.3 15.5 13 15.5H4C3.7 15.5 3.5 15.3 3.5 15V8.5C3.5 8.2 3.7 8 4 8H4.5H12.5H13C13.3 8 13.5 8.2 13.5 8.5ZM5 7V5C5 3.05 6.55 1.5 8.5 1.5C10.45 1.5 12 3.05 12 5V7H5Z" fill="#777777"/>
<path d="M8.5 9.5C7.65 9.5 7 10.15 7 11C7 11.65 7.4 12.2 8 12.4V13.5C8 13.8 8.2 14 8.5 14C8.8 14 9 13.8 9 13.5V12.4C9.6 12.2 10 11.65 10 11C10 10.15 9.35 9.5 8.5 9.5ZM8.5 11.5C8.2 11.5 8 11.3 8 11C8 10.7 8.2 10.5 8.5 10.5C8.8 10.5 9 10.7 9 11C9 11.3 8.8 11.5 8.5 11.5Z" fill="#777777"/>
</svg>
