<svg width="16" height="16" viewBox="0 0 16 16" fill="none" xmlns="http://www.w3.org/2000/svg">
<g clip-path="url(#clip0_400_5280)">
<path d="M14.4234 2.83323C14.3371 1.72024 13.4046 0.84082 12.2699 0.84082H2.16069C0.969281 0.84082 0 1.8101 0 3.00151V12.9985C0 14.1899 0.969281 15.1592 2.16069 15.1592H13.8393C15.0308 15.1592 16 14.1899 16 12.9985V4.91304C16 3.92404 15.3318 3.08872 14.4234 2.83323ZM2.16069 1.85019H12.2699C12.8192 1.85019 13.2796 2.23694 13.3938 2.75238H2.16069C1.73767 2.75238 1.34297 2.87505 1.00937 3.08601V3.00151C1.00937 2.36668 1.52586 1.85019 2.16069 1.85019ZM13.8393 14.1498H2.16069C1.52586 14.1498 1.00937 13.6334 1.00937 12.9985V4.91304C1.00937 4.27821 1.52586 3.76172 2.16069 3.76172H13.8393C14.4742 3.76172 14.9907 4.27821 14.9907 4.91304V6.67433H11.7725C10.4972 6.67433 9.45968 7.71187 9.45968 8.98715C9.45968 10.2624 10.4972 11.3 11.7725 11.3H14.9906V12.9985C14.9906 13.6334 14.4741 14.1498 13.8393 14.1498ZM14.9906 10.2906H11.7725C11.0538 10.2906 10.4691 9.70588 10.4691 8.98715C10.4691 8.26841 11.0538 7.6837 11.7725 7.6837H14.9906V10.2906Z" fill="#555555"/>
<path d="M11.96 9.55088C12.2502 9.55088 12.4855 9.31563 12.4855 9.02544C12.4855 8.73525 12.2502 8.5 11.96 8.5C11.6698 8.5 11.4346 8.73525 11.4346 9.02544C11.4346 9.31563 11.6698 9.55088 11.96 9.55088Z" fill="#555555"/>
</g>
<defs>
<clipPath id="clip0_400_5280">
<rect width="16" height="16" fill="white"/>
</clipPath>
</defs>
</svg>
