<svg id="Layer_1" enable-background="new 0 0 68 68" height="512" viewBox="0 0 68 68" width="512" xmlns="http://www.w3.org/2000/svg"><g><g><g><path d="m49.02942 5.49023c-3.67832 4.01695-3.40585 10.25707.60859 13.93769s10.25065 3.40798 13.92897-.60897 1.75617-16.93318 1.75617-16.93318-12.61541-.41249-16.29373 3.60446z" fill="#31cfff"/></g><g><path d="m35.3568 10.08182v13.01986c0 .90059-.97748 1.46122-1.75483 1.00648l-4.31586-2.52472c-.36369-.21275-.81387-.21275-1.17756 0l-4.31586 2.52472c-.77735.45474-1.75483-.1059-1.75483-1.00648v-13.01986z" fill="#31cfff"/></g><g><path d="m65.47528 30.89097c0 .74332-.29933 1.42001-.78775 1.89732-.48814.48814-1.15399.78775-1.89731.78775h-18.15235c-1.47581 0-2.67422-1.19842-2.67422-2.68506 0-.73249.2996-1.40917.78775-1.88648.47731-.48814 1.14316-.78775 1.88648-.78775h18.15235c1.48691-.00001 2.68505 1.19841 2.68505 2.67422z" fill="#31cfff"/></g><g><path d="m65.47528 62.6913c0 .74332-.29933 1.42-.78775 1.89731-.48814.48814-1.15399.78775-1.89731.78775h-18.15235c-1.47581 0-2.67422-1.19842-2.67422-2.68506 0-.73249.2996-1.40917.78775-1.88648.47731-.48814 1.14316-.78775 1.88648-.78775h18.15235c1.48691 0 2.68505 1.19842 2.68505 2.67423z" fill="#31cfff"/></g></g><g fill="#02166f"><path d="m48.28455 9.33177h-39.15992c-4.0498 0-7.34985 3.29004-7.34985 7.3501v34.33859c0 4.03792 3.27338 7.31131 7.31131 7.31131h34.64865c.40991 0 .75-.33984.75-.75 0-.41992-.34009-.75-.75-.75h-34.60996c-3.23087 0-5.85-2.61913-5.85-5.85v-34.2999c0-3.23092 2.61918-5.8501 5.8501-5.8501h12.15991v12.27002c0 1.46973 1.59985 2.3999 2.88989 1.6499l4.31006-2.52002c.12988-.08008.29004-.08008.41992 0l4.32007 2.52002c1.28003.75 2.87988-.16992 2.87988-1.6499v-12.27002h12.17017c3.23631 0 5.85986 2.62355 5.85986 5.85986v9.02002c0 .42041.33008.75.75.75.40991 0 .75-.32959.75-.75v-9.02979c0-4.05934-3.29075-7.35009-7.35009-7.35009zm-13.67994 13.77002c0 .31982-.34985.52002-.61987.35986l-4.32007-2.52979c-.6001-.3501-1.33984-.33984-1.93994 0l-4.31006 2.52979c-.28003.16016-.62988-.04004-.62988-.35986v-12.27002h11.81982z"/><path d="m25.12756 43.48656c0-.41455-.33594-.75-.75-.75h-15.0874c-.41406 0-.75.33545-.75.75 0 .41406.33594.75.75.75h15.0874c.41407 0 .75-.33594.75-.75z"/><path d="m9.29016 49.06908c-.41406 0-.75.33545-.75.75s.33594.75.75.75h8.20166c.41406 0 .75-.33545.75-.75s-.33594-.75-.75-.75z"/><path d="m62.77356 38.68871v-4.36279h.0166c1.89915 0 3.43506-1.54138 3.43506-3.43506 0-1.8877-1.54102-3.42383-3.43506-3.42383h-18.15234c-1.97727 0-3.42432 1.62996-3.42432 3.42383 0 1.89404 1.53613 3.43506 3.42432 3.43506h.42578v4.36279c0 3.59072 2.12281 6.70169 5.13281 8.10938-3.05127 1.42285-5.13281 4.54834-5.13281 8.10059v4.36816h-.42578c-1.96568 0-3.42432 1.61866-3.42432 3.4248 0 1.89355 1.53613 3.43457 3.42432 3.43457h18.15234c1.90338 0 3.43506-1.54455 3.43506-3.43457 0-1.88867-1.54102-3.4248-3.43506-3.4248h-.0166v-4.36816c0-3.5713-2.11257-6.62031-5.15674-8.0874 3.06397-1.41847 5.15674-4.55617 5.15674-8.12257zm-20.06006-7.79785c0-1.00484.81706-1.92383 1.92432-1.92383h18.15234c1.06689 0 1.93506.86279 1.93506 1.92383 0 1.08211-.88069 1.93506-1.93506 1.93506h-18.15234c-1.06104-.00001-1.92432-.86817-1.92432-1.93506zm22.01172 31.80078c0 1.08643-.88697 1.93457-1.93506 1.93457h-18.15234c-1.06104 0-1.92432-.86816-1.92432-1.93457 0-1.01239.82583-1.9248 1.92432-1.9248 1.23602.00007 16.85147.00148 18.15234 0 1.0669-.00001 1.93506.86327 1.93506 1.9248zm-9.8374-16.63721c-.37451.04834-.65479.36719-.6543.74463.00049.37793.28125.69629.65576.74316 3.22779.40825 6.38428 3.38049 6.38428 7.35645v4.36816h-14.70996v-4.36816c0-3.72803 2.74902-6.89063 6.39502-7.35645.37451-.04785.65527-.36719.65479-.74463-.00049-.37793-.28174-.69629-.65674-.74365-3.58421-.44965-6.39307-3.59562-6.39307-7.36523v-4.36035h14.70996v4.36035c0 3.73144-2.74512 6.89843-6.38574 7.36572z"/></g></g></svg>