<svg width="23" height="22" viewBox="0 0 23 22" fill="none" xmlns="http://www.w3.org/2000/svg">
<g clip-path="url(#clip0_395_2404)">
<path d="M8.58789 9.06641H13.7441C14.1005 9.06641 14.3887 8.77821 14.3887 8.42187C14.3887 8.0657 14.1005 7.77734 13.7441 7.77734H8.58789C8.23172 7.77734 7.94336 8.0657 7.94336 8.42187C7.94336 8.77821 8.23172 9.06641 8.58789 9.06641Z" fill="#D3D1D1"/>
<path d="M8.58789 11.6445H13.7441C14.1005 11.6445 14.3887 11.3563 14.3887 11C14.3887 10.6438 14.1005 10.3555 13.7441 10.3555H8.58789C8.23172 10.3555 7.94336 10.6438 7.94336 11C7.94336 11.3563 8.23172 11.6445 8.58789 11.6445Z" fill="#D3D1D1"/>
<path d="M8.58789 14.2227H13.7441C14.1005 14.2227 14.3887 13.9345 14.3887 13.5781C14.3887 13.222 14.1005 12.9336 13.7441 12.9336H8.58789C8.23172 12.9336 7.94336 13.222 7.94336 13.5781C7.94336 13.9345 8.23172 14.2227 8.58789 14.2227Z" fill="#D3D1D1"/>
<path d="M14.4336 4.73204C16.1399 5.62431 17.4446 7.17907 17.981 9.06634H16.9667C16.7287 9.06634 16.5104 9.19726 16.3982 9.4069C16.2863 9.61637 16.2989 9.87066 16.4305 10.0684C16.5062 10.199 18.8329 14.206 18.6863 13.9535C18.9255 14.3122 19.5197 14.3122 19.7589 13.9535C20.0046 13.5306 22.1421 9.9232 22.0579 10.0684C22.1894 9.87066 22.2019 9.61637 22.0899 9.4069C21.978 9.19726 21.7594 9.06634 21.5216 9.06634H20.6399C20.0519 6.17032 18.1576 3.76608 15.6104 2.44312C15.6528 2.60475 15.677 2.77176 15.677 2.9433C15.6783 4.32232 14.563 4.6461 14.4336 4.73204Z" fill="#D3D1D1"/>
<path d="M10.2343 0.108063C10.0366 -0.0233606 9.78228 -0.0359491 9.57281 0.0760045C9.36317 0.188126 9.23225 0.406494 9.23225 0.644501V1.52603C5.73802 2.23552 2.93549 4.83227 1.91699 8.2033C2.26141 7.93122 2.67029 7.77798 3.10921 7.77798C3.68693 7.77798 4.21263 8.03327 4.57249 8.45306C5.3706 6.39543 7.0875 4.79451 9.23225 4.18489V5.19919C9.23225 5.43719 9.36317 5.65556 9.57281 5.76768C9.78245 5.87963 10.0367 5.86705 10.2343 5.73562C10.3649 5.65976 14.3719 3.33307 14.1194 3.4796C14.4783 3.24042 14.4783 2.64624 14.1194 2.40706C13.6965 2.1615 10.0891 0.0238043 10.2343 0.108063Z" fill="#D3D1D1"/>
<path d="M0.24202 13.882C0.354142 14.0917 0.57251 14.2226 0.810516 14.2226H2.0598C2.88006 16.5392 4.56692 18.4283 6.71905 19.5502C6.67759 19.3908 6.65493 19.2258 6.65493 19.0566C6.65359 17.6834 7.76003 17.3582 7.88911 17.2725C6.59165 16.5931 5.52835 15.5274 4.85881 14.2226H5.3652C5.60321 14.2226 5.82157 14.0917 5.9337 13.882C6.04565 13.6726 6.03306 13.4183 5.90147 13.2206C5.82577 13.09 3.49908 9.08298 3.64561 9.33542C3.40643 8.97673 2.81225 8.97673 2.57307 9.33542C2.40321 9.62798 0.13527 13.4599 0.274079 13.2206C0.142655 13.4183 0.130066 13.6726 0.24202 13.882Z" fill="#D3D1D1"/>
<path d="M13.0996 16.8008C13.0996 16.5628 12.9686 16.3445 12.759 16.2323C12.5495 16.1204 12.2952 16.133 12.0975 16.2646C11.9669 16.3403 7.95993 18.6669 8.21238 18.5204C7.85369 18.7596 7.85369 19.3538 8.21238 19.593C8.63535 19.8385 12.2427 21.9762 12.0975 21.8919C12.2952 22.0235 12.5495 22.036 12.759 21.924C12.9686 21.8121 13.0996 21.5935 13.0996 21.3557V20.474C15.9954 19.886 18.3995 17.992 19.7225 15.445C19.5612 15.4876 19.3941 15.5118 19.2226 15.5118C18.1277 15.5118 17.7132 14.8142 17.4119 14.3125C16.5159 15.9972 14.9704 17.2834 13.0996 17.8151V16.8008Z" fill="#D3D1D1"/>
</g>
<defs>
<clipPath id="clip0_395_2404">
<rect width="22" height="22" fill="white" transform="translate(0.166016)"/>
</clipPath>
</defs>
</svg>
