<svg width="23" height="23" viewBox="0 0 23 23" fill="none" xmlns="http://www.w3.org/2000/svg">
<g clip-path="url(#clip0_254_351)">
<path d="M15.0652 1.43478H13.507C13.2115 0.599739 12.4137 0 11.4783 0C10.5428 0 9.74505 0.599739 9.44805 1.43478H7.89131C7.49531 1.43478 7.17392 1.75617 7.17392 2.15217V5.02174C7.17392 5.41774 7.49531 5.73913 7.89131 5.73913H15.0652C15.4612 5.73913 15.7826 5.41774 15.7826 5.02174V2.15217C15.7826 1.75617 15.4612 1.43478 15.0652 1.43478Z" fill="#131722" fill-opacity="0.13"/>
<path d="M18.6522 2.86951H17.2174V5.02168C17.2174 6.20825 16.2518 7.17385 15.0652 7.17385H7.89131C6.70474 7.17385 5.73913 6.20825 5.73913 5.02168V2.86951H4.30435C3.51379 2.86951 2.86957 3.51372 2.86957 4.30429V21.5217C2.86957 22.3266 3.49944 22.9565 4.30435 22.9565H18.6522C19.4571 22.9565 20.087 22.3266 20.087 21.5217V4.30429C20.087 3.49938 19.4571 2.86951 18.6522 2.86951ZM11.2688 15.5731L8.39922 18.4426C8.25861 18.5818 8.07496 18.6521 7.89131 18.6521C7.70765 18.6521 7.524 18.5818 7.38339 18.4426L5.94861 17.0079C5.66883 16.7281 5.66883 16.2732 5.94861 15.9935C6.22839 15.7137 6.68322 15.7137 6.963 15.9935L7.89131 16.9203L10.253 14.5587C10.5327 14.2789 10.9876 14.2789 11.2674 14.5587C11.5471 14.8385 11.5486 15.2919 11.2688 15.5731ZM11.2688 9.83394L8.39922 12.7035C8.25861 12.8427 8.07496 12.913 7.89131 12.913C7.70765 12.913 7.524 12.8427 7.38339 12.7035L5.94861 11.2687C5.66883 10.9889 5.66883 10.5341 5.94861 10.2543C6.22839 9.97455 6.68322 9.97455 6.963 10.2543L7.89131 11.1812L10.253 8.81955C10.5327 8.53977 10.9876 8.53977 11.2674 8.81955C11.5471 9.09933 11.5486 9.55272 11.2688 9.83394ZM16.5 17.2173H13.6304C13.2344 17.2173 12.913 16.8959 12.913 16.4999C12.913 16.1039 13.2344 15.7826 13.6304 15.7826H16.5C16.896 15.7826 17.2174 16.1039 17.2174 16.4999C17.2174 16.8959 16.896 17.2173 16.5 17.2173ZM16.5 11.4782H13.6304C13.2344 11.4782 12.913 11.1568 12.913 10.7608C12.913 10.3648 13.2344 10.0434 13.6304 10.0434H16.5C16.896 10.0434 17.2174 10.3648 17.2174 10.7608C17.2174 11.1568 16.896 11.4782 16.5 11.4782Z" fill="#131722" fill-opacity="0.13"/>
</g>
<defs>
<clipPath id="clip0_254_351">
<rect width="22.9565" height="22.9565" fill="white"/>
</clipPath>
</defs>
</svg>
