<svg width="16" height="16" viewBox="0 0 16 16" fill="none" xmlns="http://www.w3.org/2000/svg">
<g clip-path="url(#clip0_400_5321)">
<path d="M7.97478 14.3426H2.26651C1.9164 14.3426 1.63227 14.0584 1.63227 13.7083V2.29181C1.63227 1.9417 1.91643 1.65757 2.26651 1.65757H7.97478C8.32551 1.65757 8.60901 1.37407 8.60901 1.02333C8.60901 0.672598 8.32551 0.389038 7.97478 0.389038H2.26651C1.21746 0.389038 0.36377 1.24276 0.36377 2.29181V13.7083C0.36377 14.7573 1.21746 15.611 2.26651 15.611H7.97478C8.32551 15.611 8.60901 15.3275 8.60901 14.9768C8.60901 14.6261 8.32551 14.3426 7.97478 14.3426Z" fill="#555555"/>
<path d="M15.4477 7.5484L11.5915 3.7429C11.3428 3.49681 10.9407 3.5 10.6946 3.74925C10.4485 3.99851 10.4511 4.39998 10.701 4.64608L13.4568 7.36573H6.07222C5.72149 7.36573 5.43799 7.64923 5.43799 7.99996C5.43799 8.3507 5.72149 8.63423 6.07222 8.63423H13.4568L10.701 11.3539C10.4511 11.6 10.4492 12.0014 10.6946 12.2507C10.8189 12.3763 10.9826 12.4397 11.1462 12.4397C11.3073 12.4397 11.4684 12.3788 11.5915 12.257L15.4477 8.45152C15.5682 8.33229 15.6367 8.1699 15.6367 7.99993C15.6367 7.83002 15.5688 7.66829 15.4477 7.5484Z" fill="#555555"/>
</g>
<defs>
<clipPath id="clip0_400_5321">
<rect width="15.2727" height="15.2727" fill="white" transform="translate(0.36377 0.363647)"/>
</clipPath>
</defs>
</svg>
