<svg width="18" height="18" viewBox="0 0 18 18" fill="none" xmlns="http://www.w3.org/2000/svg">
<path d="M7.3501 1.5H9.1501C9.39879 1.5 9.6001 1.7013 9.6001 1.95C9.6001 2.1987 9.39879 2.4 9.1501 2.4H7.3501C7.1014 2.4 6.9001 2.1987 6.9001 1.95C6.9001 1.7013 7.1014 1.5 7.3501 1.5Z" fill="#555555"/>
<path d="M5.3999 0H12.5999C13.5923 0 14.3999 0.807609 14.3999 1.8V16.2C14.3999 17.1924 13.5923 18 12.5999 18H5.3999C4.40751 18 3.5999 17.1924 3.5999 16.2V1.8C3.5999 0.807609 4.40751 0 5.3999 0ZM4.4999 16.2C4.4999 16.6971 4.90279 17.1 5.3999 17.1H12.5999C13.097 17.1 13.4999 16.6971 13.4999 16.2V1.8C13.4999 1.30289 13.097 0.9 12.5999 0.9H5.3999C4.90279 0.9 4.4999 1.30289 4.4999 1.8V16.2Z" fill="#555555"/>
<path d="M8.9999 16.5C8.50285 16.5 8.0999 16.097 8.0999 15.6C8.0999 15.1029 8.50285 14.7 8.9999 14.7C9.49696 14.7 9.8999 15.1029 9.8999 15.6C9.8999 16.097 9.49696 16.5 8.9999 16.5Z" fill="#555555"/>
<path d="M10.6501 2.4C10.4016 2.4 10.2001 2.19853 10.2001 1.95C10.2001 1.70147 10.4016 1.5 10.6501 1.5C10.8986 1.5 11.1001 1.70147 11.1001 1.95C11.1001 2.19853 10.8986 2.4 10.6501 2.4Z" fill="#555555"/>
</svg>
