<svg width="16" height="16" viewBox="0 0 16 16" fill="none" xmlns="http://www.w3.org/2000/svg">
<g clip-path="url(#clip0_536_1421)">
<path d="M15.4291 4.06998e-08C15.3403 -3.34409e-05 15.2528 0.0205912 15.1734 0.060267L10.8432 2.22596L5.94669 0.0494189C5.93869 0.0460038 5.92955 0.0454011 5.92098 0.041986C5.89895 0.0337495 5.87641 0.0268858 5.85355 0.0214283C5.83081 0.0153011 5.80771 0.0105133 5.78441 0.00713163C5.738 0.00331472 5.69136 0.00331472 5.64499 0.00713163C5.62169 0.0105133 5.59858 0.0153011 5.57585 0.0214283C5.55298 0.0268858 5.53045 0.0337495 5.50842 0.041986C5.49985 0.0454011 5.49071 0.0459703 5.4827 0.0494189L0.339925 2.33511C0.133477 2.42678 0.000454806 2.63149 0.000488288 2.85736V15.4286C0.000588732 15.6219 0.0983886 15.8021 0.260473 15.9075C0.422591 16.013 0.627064 16.0293 0.80388 15.9509L5.71466 13.768L10.6254 15.9509C10.634 15.9543 10.6432 15.9509 10.6517 15.956C10.7901 16.0179 10.9489 16.0144 11.0843 15.9463C11.0934 15.9423 11.1037 15.9463 11.1128 15.94L15.6842 13.6543C15.8779 13.5575 16.0003 13.3595 16.0002 13.1429V0.571699C16.0004 0.256101 15.7447 0.000133967 15.4291 4.06998e-08ZM5.14327 12.7715L1.14332 14.5492V3.2288L5.14327 1.45109V12.7715ZM10.286 14.5492L6.28609 12.7715V1.45109L10.286 3.22877V14.5492ZM14.8574 12.7898L11.4289 14.504V3.21049L14.8574 1.49623V12.7898Z" fill="#555555"/>
</g>
<defs>
<clipPath id="clip0_536_1421">
<rect width="16" height="16" fill="white"/>
</clipPath>
</defs>
</svg>
