<svg width="16" height="16" viewBox="0 0 16 16" fill="none" xmlns="http://www.w3.org/2000/svg">
<g clip-path="url(#clip0_535_5138)">
<path d="M8 0C10.3262 0 12.2188 1.89253 12.2188 4.21875C12.2188 6.54497 10.3262 8.4375 8 8.4375C5.67378 8.4375 3.78125 6.54497 3.78125 4.21875C3.78125 1.89253 5.67378 0 8 0ZM8 7.5C9.80928 7.5 11.2812 6.02803 11.2812 4.21875C11.2812 2.40947 9.80928 0.9375 8 0.9375C6.19072 0.9375 4.71875 2.40947 4.71875 4.21875C4.71875 6.02803 6.19072 7.5 8 7.5Z" fill="#555555"/>
<path d="M2.75106 11.2561C3.90606 10.0833 5.43722 9.4375 7.0625 9.4375H8.9375C10.5627 9.4375 12.0939 10.0833 13.2489 11.2561C14.3983 12.4231 15.0312 13.9635 15.0312 15.5938C15.0312 15.8526 14.8214 16.0625 14.5625 16.0625H1.4375C1.17863 16.0625 0.96875 15.8526 0.96875 15.5938C0.96875 13.9635 1.60172 12.4231 2.75106 11.2561ZM14.0731 15.125C13.8383 12.4661 11.6247 10.375 8.9375 10.375H7.0625C4.37534 10.375 2.16172 12.4661 1.92688 15.125H14.0731Z" fill="#555555"/>
</g>
<defs>
<clipPath id="clip0_535_5138">
<rect width="16" height="16" fill="white" transform="matrix(-1 0 0 1 16 0)"/>
</clipPath>
</defs>
</svg>
