<svg width="26" height="23" viewBox="0 0 26 23" fill="none" xmlns="http://www.w3.org/2000/svg">
<path d="M16.157 6.4617L14.235 6.1828L13.376 4.443C13.221 4.1331 12.779 4.1286 12.624 4.443L11.765 6.1828L9.843 6.4617C9.498 6.5104 9.36099 6.9354 9.60899 7.1789L10.999 8.5336L10.671 10.4461C10.614 10.787 10.972 11.0526 11.282 10.8888L13 9.9857L14.718 10.8888C15.023 11.0482 15.386 10.7914 15.329 10.4461L15.001 8.5336L16.391 7.1789C16.639 6.9354 16.502 6.5104 16.157 6.4617ZM20.083 3.1458V1.0208C20.083 0.631302 19.765 0.3125 19.375 0.3125H6.625C6.235 0.3125 5.91701 0.631302 5.91701 1.0208V3.1458H0.957993C0.568993 3.1458 0.25 3.4646 0.25 3.8542V6.5458C0.25 9.2154 3.27399 12.0885 7.31599 12.8589C8.52899 15.4221 10.33 16.7635 11.937 17.1708V20.8542H9.104C8.126 20.8542 7.33299 21.6466 7.33299 22.625C7.33299 22.8198 7.493 22.9792 7.687 22.9792H18.312C18.507 22.9792 18.667 22.8198 18.667 22.625C18.667 21.6466 17.874 20.8542 16.896 20.8542H14.062V17.1708C15.67 16.7591 17.471 15.4221 18.684 12.8589C22.717 12.093 25.75 9.2198 25.75 6.5458V3.8542C25.75 3.4646 25.431 3.1458 25.042 3.1458H20.083ZM2.375 6.5458V5.2708H5.91701C5.91701 7.0063 6.01 8.6443 6.461 10.4417C4.022 9.6049 2.375 7.8341 2.375 6.5458ZM13 15.1875C10.654 15.1875 8.04201 11.7167 8.04201 5.625V2.4375H17.958V5.625C17.958 11.8451 15.267 15.1875 13 15.1875ZM23.625 6.5458C23.625 7.8341 21.978 9.6049 19.539 10.4417C19.99 8.6443 20.083 7.0018 20.083 5.2708H23.625V6.5458Z" fill="white"/>
</svg>
