<svg width="16" height="16" viewBox="0 0 16 16" fill="none" xmlns="http://www.w3.org/2000/svg">
<g clip-path="url(#clip0_400_5306)">
<path fill-rule="evenodd" clip-rule="evenodd" d="M7.28591 0.905854C7.13748 0.819468 6.95325 0.819468 6.80482 0.905854L1.07755 4.24676C0.931025 4.3322 0.84082 4.48922 0.84082 4.65913C0.84082 4.82904 0.931025 4.98606 1.07755 5.07149L6.80482 8.4124C6.95325 8.49879 7.13748 8.49879 7.28591 8.4124L13.0132 5.07149C13.1597 4.98606 13.2499 4.82904 13.2499 4.65913C13.2499 4.48922 13.1597 4.3322 13.0132 4.24676L7.28591 0.905854ZM7.04537 1.8709L11.8253 4.65913L7.04537 7.44735L2.26548 4.65913L7.04537 1.8709Z" fill="#555555"/>
<path fill-rule="evenodd" clip-rule="evenodd" d="M6.56836 7.99998V14.6818C6.56836 14.9453 6.78218 15.1591 7.04563 15.1591C7.30909 15.1591 7.5229 14.9453 7.5229 14.6818V7.99998C7.5229 7.73652 7.30909 7.52271 7.04563 7.52271C6.78218 7.52271 6.56836 7.73652 6.56836 7.99998Z" fill="#555555"/>
<path fill-rule="evenodd" clip-rule="evenodd" d="M0.84082 4.65916V11.341C0.84082 11.6044 1.05464 11.8182 1.31809 11.8182C1.58155 11.8182 1.79537 11.6044 1.79537 11.341V4.65916C1.79537 4.3957 1.58155 4.18188 1.31809 4.18188C1.05464 4.18188 0.84082 4.3957 0.84082 4.65916Z" fill="#555555"/>
<path fill-rule="evenodd" clip-rule="evenodd" d="M12.2954 4.65916V7.52279C12.2954 7.78625 12.5092 8.00007 12.7727 8.00007C13.0361 8.00007 13.25 7.78625 13.25 7.52279V4.65916C13.25 4.3957 13.0361 4.18188 12.7727 4.18188C12.5092 4.18188 12.2954 4.3957 12.2954 4.65916Z" fill="#555555"/>
<path fill-rule="evenodd" clip-rule="evenodd" d="M1.07765 11.7533L6.80493 15.0942C7.03259 15.2269 7.32515 15.15 7.45784 14.9224C7.59052 14.6947 7.51368 14.4021 7.28602 14.2695L1.55875 10.9285C1.33109 10.7959 1.03852 10.8727 0.905836 11.1004C0.773155 11.328 0.849995 11.6206 1.07765 11.7533Z" fill="#555555"/>
<path fill-rule="evenodd" clip-rule="evenodd" d="M8.7138 13.156L6.80471 14.2694C6.57705 14.4021 6.50021 14.6947 6.63289 14.9223C6.76557 15.15 7.05814 15.2268 7.2858 15.0942L9.19489 13.9802C9.42255 13.8475 9.49939 13.5554 9.36671 13.3278C9.23402 13.1001 8.94146 13.0233 8.7138 13.156Z" fill="#555555"/>
<path fill-rule="evenodd" clip-rule="evenodd" d="M4.51772 6.77202L9.91186 3.23686C10.1319 3.09225 10.1934 2.79634 10.0493 2.57584C9.9047 2.35582 9.60879 2.29425 9.38829 2.43839L3.99463 5.97402C3.77413 6.11816 3.71256 6.41407 3.8567 6.63457C4.00131 6.85507 4.29722 6.91664 4.51772 6.77202Z" fill="#555555"/>
<path fill-rule="evenodd" clip-rule="evenodd" d="M12.05 15.0909C12.2008 15.182 12.3898 15.182 12.5406 15.0909C12.5406 15.0909 13.4694 14.5353 14.212 13.6223C14.7356 12.978 15.1589 12.1618 15.1589 11.2455C15.1589 9.72298 13.8813 8.47729 12.2953 8.47729C10.7093 8.47729 9.43164 9.72298 9.43164 11.2455C9.43164 12.1618 9.85498 12.978 10.3785 13.6223C11.1212 14.5353 12.05 15.0909 12.05 15.0909ZM12.2953 14.1082C12.0118 13.9063 11.5321 13.5278 11.1193 13.02C10.7265 12.5365 10.3862 11.9332 10.3862 11.2455C10.3862 10.2389 11.2467 9.43184 12.2953 9.43184C13.3438 9.43184 14.2044 10.2389 14.2044 11.2455C14.2044 11.9332 13.8641 12.5365 13.4713 13.02C13.0584 13.5278 12.5788 13.9063 12.2953 14.1082Z" fill="#555555"/>
<path fill-rule="evenodd" clip-rule="evenodd" d="M12.2956 9.90918C11.5052 9.90918 10.8638 10.5506 10.8638 11.341C10.8638 12.1314 11.5052 12.7728 12.2956 12.7728C13.086 12.7728 13.7274 12.1314 13.7274 11.341C13.7274 10.5506 13.086 9.90918 12.2956 9.90918ZM12.2956 10.8637C12.559 10.8637 12.7729 11.0775 12.7729 11.341C12.7729 11.6045 12.559 11.8183 12.2956 11.8183C12.0321 11.8183 11.8183 11.6045 11.8183 11.341C11.8183 11.0775 12.0321 10.8637 12.2956 10.8637Z" fill="#555555"/>
</g>
<defs>
<clipPath id="clip0_400_5306">
<rect width="15.2727" height="15.2727" fill="white" transform="translate(0.36377 0.363647)"/>
</clipPath>
</defs>
</svg>
