<svg width="16" height="17" viewBox="0 0 16 17" fill="none" xmlns="http://www.w3.org/2000/svg">
<g clip-path="url(#clip0_395_2318)">
<path d="M11.4679 8.17139C13.295 8.17139 14.7816 6.68626 14.7816 4.85883C14.7816 3.03158 13.2952 1.54479 11.4679 1.54479C9.64045 1.54479 8.15411 3.03151 8.15411 4.85883C8.15411 6.68633 9.64064 8.17139 11.4679 8.17139ZM9.53033 4.53686C9.70798 4.35926 9.99583 4.35923 10.1735 4.53686L10.9291 5.29236L12.762 3.45939C12.9395 3.28179 13.2275 3.28176 13.4051 3.45939C13.5828 3.63717 13.583 3.92558 13.4051 4.10329L11.2508 6.25673C11.1651 6.34245 11.0504 6.39036 10.9292 6.39036C10.8079 6.39036 10.6933 6.34245 10.6075 6.25673L9.53036 5.18076C9.35252 5.00317 9.35261 4.71448 9.53033 4.53686ZM15.3265 6.6822L14.7777 10.2358C14.6647 10.9654 13.9953 11.4953 13.1863 11.4953H5.33195C4.52283 11.4953 3.85345 10.9654 3.74073 10.2358C3.31545 7.4857 2.88998 4.73611 2.46483 1.98611H1.1738C0.897984 1.98611 0.673828 1.76298 0.673828 1.48701C0.673828 1.21104 0.897984 0.98645 1.1738 0.98645H2.46602C2.96189 0.98645 3.37377 1.31967 3.44483 1.77914L3.63373 3.00192C3.87358 2.87423 4.14633 2.8067 4.44108 2.8067H7.72483C7.39061 3.41529 7.20036 4.11423 7.20036 4.85764C7.20036 7.21451 9.11098 9.12514 11.4679 9.12514C13.1719 9.12511 14.6424 8.12623 15.3265 6.6822ZM13.7404 13.844C13.7404 14.6733 13.066 15.3471 12.2369 15.3471C11.4083 15.3471 10.7338 14.6733 10.7338 13.844C10.7338 13.016 11.4083 12.3408 12.2369 12.3408C13.066 12.3408 13.7404 13.016 13.7404 13.844ZM7.14733 13.844C7.14733 14.6733 6.47311 15.3471 5.64417 15.3471C4.81539 15.3471 4.14102 14.6733 4.14102 13.844C4.14102 13.016 4.81539 12.3408 5.64417 12.3408C6.47311 12.3408 7.14733 13.016 7.14733 13.844Z" fill="white"/>
</g>
<defs>
<clipPath id="clip0_395_2318">
<rect width="16" height="16" fill="white" transform="translate(0 0.166748)"/>
</clipPath>
</defs>
</svg>
