<svg id="Layer_2" enable-background="new 0 0 32 32" height="512" viewBox="0 0 32 32" width="512" xmlns="http://www.w3.org/2000/svg"><path d="m1.64301 9.22559c-.00189.94415.65277 1.91199 1.90625 1.93372h20.22809l-3.45868 3.45917c-.56763.52838-.73322 1.35754-.42004 2.11298.30652.73883.9801 1.20667 1.71326 1.20618.54022.00714 1.05292-.18774 1.43231-.56805l6.78876-6.78876c.52502-.56104.68488-1.35944.38788-2.14325-.10315-.1925-.22803-.37891-.39923-.58417l-6.78308-6.78308c-.90063-.87079-2.05005-.64758-2.71893.0213-.66882.66833-.8902 1.81641-.01324 2.72314l3.47101 3.4715h-20.2272c-1.25061.01891-1.90625.98955-1.90716 1.93932z"/><path d="m30.36743 22.77521c.00092-.94464-.65369-1.91241-1.90625-1.9342h-20.22809l3.47571-3.47668c.87225-.89868.65088-2.04767-.01892-2.71838-.67072-.67126-1.8183-.89307-2.72461-.01514l-6.78778 6.78967c-.56195.60217-.70667 1.48004-.35852 2.19006.08893.17645.21002.33771.36987.53638l6.7821 6.78259c.41535.40161.88361.57049 1.33302.57049.526 0 1.02643-.23083 1.38684-.59174.66888-.66888.88928-1.81641.01324-2.72272l-3.47095-3.47144h20.22711c1.25068-.01848 1.90626-.98955 1.90723-1.93889z"/></svg>