<svg clip-rule="evenodd" fill-rule="evenodd" height="512" stroke-linejoin="round" stroke-miterlimit="2" viewBox="0 0 32 32" width="512" xmlns="http://www.w3.org/2000/svg"><g transform="translate(-10 -10)"><path d="m34 21h-16v15c0 .796.316 1.559.879 2.121.562.563 1.325.879 2.121.879h10c.796 0 1.559-.316 2.121-.879.563-.562.879-1.325.879-2.121zm-9 3.987c-.626.156-1.157.48-1.515.962-.295.397-.485.907-.485 1.558 0 1.289.891 1.943 2.128 2.304.448.13.942.226 1.372.37.133.045.258.093.367.156.067.039.133.08.133.17 0 .398-.302.551-.634.596-.602.081-1.325-.1-1.807-.425-.457-.309-1.079-.188-1.388.269-.309.458-.188 1.08.27 1.389.436.294.984.518 1.559.648v.016c0 .552.448 1 1 1 .547 0 .992-.44 1-.985.106-.025.21-.055.309-.09.982-.347 1.691-1.104 1.691-2.418 0-1.289-.891-1.943-2.128-2.304-.448-.131-.942-.227-1.372-.371-.133-.044-.258-.093-.367-.155-.067-.039-.133-.081-.133-.17 0-.403.303-.562.638-.609.597-.083 1.312.095 1.789.429.453.316 1.077.205 1.393-.248.316-.452.205-1.076-.247-1.392-.44-.308-.994-.542-1.573-.677v-.01c0-.552-.448-1-1-1-.547 0-.993.441-1 .987zm-9-3.987h-4v3c0 1.657 1.343 3 3 3h1zm24 0h-4v6h1c1.657 0 3-1.343 3-3zm0-2v-3c0-1.657-1.343-3-3-3h-22c-1.657 0-3 1.343-3 3v3zm-7-2h2c.552 0 1-.448 1-1s-.448-1-1-1h-2c-.552 0-1 .448-1 1s.448 1 1 1z"/></g></svg>