<svg width="14" height="14" viewBox="0 0 14 14" fill="none" xmlns="http://www.w3.org/2000/svg">
<g clip-path="url(#clip0_536_1304)">
<path d="M11.9498 2.05027C10.6276 0.728111 8.86978 0 7.00001 0C5.13024 0 3.37237 0.728111 2.05027 2.05024C0.728111 3.37237 0 5.13024 0 7.00001C0 8.86978 0.728111 10.6276 2.05027 11.9498C3.37237 13.2719 5.13024 14 7.00001 14C8.86981 14 10.6276 13.2719 11.9498 11.9497C13.2719 10.6276 14 8.86976 14 6.99999C14 5.13022 13.2719 3.37237 11.9498 2.05027ZM2.63091 2.63091C3.24645 2.01538 3.96906 1.54588 4.75667 1.23944C4.54689 1.50134 4.35059 1.80237 4.1707 2.14094C3.96176 2.53414 3.78148 2.96598 3.63134 3.42724C3.11121 3.34092 2.62927 3.23477 2.19872 3.11019C2.33366 2.94433 2.47762 2.7842 2.63091 2.63091ZM1.70158 3.81679C2.20517 3.97803 2.78108 4.11401 3.4095 4.22172C3.2345 4.96454 3.13149 5.76388 3.10691 6.58945H0.83497C0.899502 5.5987 1.19706 4.65315 1.70158 3.81679ZM1.65687 10.1073C1.17958 9.28976 0.89756 8.3715 0.834943 7.41058H3.10847C3.13532 8.21255 3.23628 8.98917 3.40537 9.71255C2.76405 9.81651 2.17367 9.94904 1.65687 10.1073ZM2.63091 11.3691C2.45646 11.1946 2.29398 11.0114 2.14334 10.8207C2.58968 10.697 3.08865 10.5922 3.62576 10.5081C3.77697 10.9758 3.95919 11.4133 4.17067 11.8114C4.36672 12.1803 4.58227 12.5045 4.81352 12.7822C4.00387 12.4764 3.26124 11.9994 2.63091 11.3691ZM6.58942 13.0735C5.96576 12.8988 5.37579 12.3293 4.89585 11.426C4.72799 11.1102 4.58055 10.7656 4.45425 10.3983C5.13046 10.3238 5.85002 10.2798 6.58942 10.2695V13.0735ZM6.58942 9.4483C5.76943 9.45948 4.9702 9.51097 4.22172 9.59888C4.05662 8.91635 3.95728 8.1776 3.93002 7.41061H6.58945V9.4483H6.58942ZM6.58942 6.58942H3.92846C3.95337 5.80099 4.05429 5.04162 4.22454 4.34173C4.96823 4.4347 5.7658 4.49125 6.58942 4.50743V6.58942ZM6.58942 3.68616C5.84714 3.67121 5.12918 3.62281 4.45775 3.54384C4.58329 3.18039 4.72958 2.83924 4.89585 2.52624C5.37576 1.62302 5.96576 1.0535 6.58942 0.878803V3.68616ZM12.3243 3.8604C12.8131 4.68599 13.1016 5.61584 13.1651 6.58942H10.8932C10.8689 5.77337 10.7678 4.983 10.5965 4.2475C11.229 4.14535 11.8121 4.01538 12.3243 3.8604ZM11.3691 2.63091C11.5339 2.79577 11.6879 2.96858 11.8316 3.14798C11.3921 3.26799 10.9027 3.36985 10.3768 3.45183C10.2251 2.98129 10.042 2.54114 9.82936 2.14094C9.64946 1.80237 9.45316 1.50134 9.24338 1.23944C10.0309 1.54588 10.7536 2.01538 11.3691 2.63091ZM7.41061 7.41061H10.07C10.0426 8.18356 9.94191 8.92792 9.77445 9.61485C9.03087 9.5224 8.23366 9.46637 7.41061 9.45062V7.41061ZM7.41061 6.58942V4.51017C8.23106 4.4994 9.03092 4.44834 9.78011 4.36076C9.94759 5.05538 10.0469 5.80812 10.0716 6.58942H7.41061ZM7.41055 0.878803H7.41058C8.03424 1.0535 8.62421 1.62302 9.10415 2.52624C9.27308 2.84417 9.42136 3.19119 9.54821 3.56115C8.8711 3.6353 8.15072 3.67897 7.41055 3.68895V0.878803ZM7.41061 13.0735V10.2719C8.15217 10.2864 8.86959 10.3344 9.54077 10.4129C9.41557 10.7747 9.26977 11.1144 9.10417 11.426C8.62424 12.3293 8.03427 12.8988 7.41061 13.0735ZM11.3691 11.3691C10.7388 11.9994 9.99616 12.4764 9.18648 12.7822C9.41773 12.5045 9.63328 12.1803 9.82933 11.8114C10.0377 11.4192 10.2176 10.9887 10.3675 10.5288C10.8997 10.6166 11.3921 10.7253 11.8308 10.8531C11.6874 11.032 11.5336 11.2045 11.3691 11.3691ZM12.3213 10.1448C11.8117 9.98098 11.2275 9.84314 10.5897 9.73437C10.7619 9.00483 10.8645 8.22061 10.8916 7.41061H13.1651C13.1015 8.38618 12.8119 9.31792 12.3213 10.1448Z" fill="#555555"/>
</g>
<defs>
<clipPath id="clip0_536_1304">
<rect width="14" height="14" fill="white"/>
</clipPath>
</defs>
</svg>
