<svg width="19" height="19" viewBox="0 0 19 19" fill="none" xmlns="http://www.w3.org/2000/svg">
<path d="M9.5 0C5.91909 0 3.00586 2.91327 3.00586 6.49414V18.4434C3.00586 18.7508 3.25509 19 3.5625 19H5.41797C5.69009 19 5.92229 18.8033 5.96704 18.5349L6.26061 16.7734H12.7394L13.033 18.5349C13.0777 18.8033 13.3099 19 13.582 19H15.4375C15.7449 19 15.9941 18.7508 15.9941 18.4434V6.49414C15.9941 2.91327 13.0809 0 9.5 0ZM9.5 1.11328C12.2791 1.11328 14.5728 3.23104 14.8522 5.9375H4.14779C4.42722 3.23104 6.72092 1.11328 9.5 1.11328ZM4.94642 17.8867H4.11914V16.7734H5.13197L4.94642 17.8867ZM14.8809 17.8867H14.0536L13.868 16.7734H14.8809V17.8867ZM14.8809 15.6602H4.11914V7.05078H14.8809V15.6602Z" fill="#555555"/>
<path d="M6.53125 14.5098H12.4688C13.1849 14.5098 13.7676 13.9271 13.7676 13.2109V9.5C13.7676 8.78383 13.1849 8.20117 12.4688 8.20117H6.53125C5.81508 8.20117 5.23242 8.78383 5.23242 9.5V13.2109C5.23242 13.9271 5.81508 14.5098 6.53125 14.5098ZM11.5886 9.31445L9.82226 10.6883C9.7306 10.7595 9.61615 10.7988 9.5 10.7988C9.38385 10.7988 9.2694 10.7595 9.17771 10.6883L7.41141 9.31445H11.5886ZM6.3457 9.89592L8.49422 11.567C8.78034 11.7895 9.13752 11.9121 9.5 11.9121C9.86248 11.9121 10.2197 11.7895 10.5058 11.567L12.6543 9.89592V13.2109C12.6543 13.3132 12.5711 13.3965 12.4688 13.3965H6.53125C6.42894 13.3965 6.3457 13.3132 6.3457 13.2109V9.89592Z" fill="#555555"/>
<path d="M11.7266 3.71094H7.27344C6.96602 3.71094 6.7168 3.96016 6.7168 4.26758C6.7168 4.57499 6.96602 4.82422 7.27344 4.82422H11.7266C12.034 4.82422 12.2832 4.57499 12.2832 4.26758C12.2832 3.96016 12.034 3.71094 11.7266 3.71094Z" fill="#555555"/>
</svg>
